<?xml version="1.0" encoding="UTF-8"?>
<!DOCTYPE svg PUBLIC "-//W3C//DTD SVG 1.1//EN" "http://www.w3.org/Graphics/SVG/1.1/DTD/svg11.dtd">
<!-- Creator: CorelDRAW -->
<svg xmlns="http://www.w3.org/2000/svg" xml:space="preserve" width="1.99999in" height="1.99999in" version="1.1" style="shape-rendering:geometricPrecision; text-rendering:geometricPrecision; image-rendering:optimizeQuality; fill-rule:evenodd; clip-rule:evenodd"
viewBox="0 0 2000 2000"
 xmlns:xlink="http://www.w3.org/1999/xlink">
 <defs>
  <style type="text/css">
   <![CDATA[
    .fil1 {fill:#0B263D}
    .fil0 {fill:#0E3454}
   ]]>
  </style>
 </defs>
 <g id="Layer_x0020_1">
  <metadata id="CorelCorpID_0Corel-Layer"/>
  <path class="fil0" d="M668 767l-481 0c-22,0 -40,-18 -40,-40l0 -480c0,-22 18,-40 40,-40l481 0c22,0 40,18 40,40l0 480c0,22 -18,40 -40,40z"/>
  <path class="fil1" d="M427 527l-240 0c-22,0 -40,-18 -40,-40l0 -240c0,-22 18,-40 40,-40l240 0c22,0 40,18 40,40l0 240c0,22 -18,40 -40,40z"/>
  <path class="fil0" d="M1073 1053l-886 0c-22,0 -40,-18 -40,-40l0 -110c0,-22 18,-40 40,-40 22,0 40,18 40,40l0 70 846 0c22,0 40,18 40,40 0,22 -18,40 -40,40z"/>
  <path class="fil0" d="M385 1163c-22,0 -40,-18 -40,-40l0 -110c0,-22 18,-40 40,-40 22,0 40,18 40,40l0 110c0,22 -18,40 -40,40z"/>
  <path class="fil0" d="M625 1163c-22,0 -40,-18 -40,-40l0 -110c0,-22 18,-40 40,-40 22,0 40,18 40,40l0 110c0,22 -18,40 -40,40z"/>
  <path class="fil0" d="M865 1053c-22,0 -40,-18 -40,-40l0 -144c0,-22 18,-40 40,-40 22,0 40,18 40,40l0 144c0,22 -18,40 -40,40z"/>
  <path class="fil0" d="M865 909l-385 0c-22,0 -40,-18 -40,-40 0,-22 18,-40 40,-40l385 0c22,0 40,18 40,40 0,22 -18,40 -40,40z"/>
  <path class="fil0" d="M668 1793l-481 0c-22,0 -40,-18 -40,-40l0 -480c0,-22 18,-40 40,-40l481 0c22,0 40,18 40,40l0 480c0,22 -18,40 -40,40z"/>
  <path class="fil0" d="M1813 767l-481 0c-22,0 -40,-18 -40,-40l0 -480c0,-22 18,-40 40,-40l481 0c22,0 40,18 40,40l0 480c0,22 -18,40 -40,40z"/>
  <path class="fil0" d="M1050 768c-22,0 -40,-18 -40,-40l0 -441 -189 0c-22,0 -40,-18 -40,-40 0,-22 18,-40 40,-40l229 0c22,0 40,18 40,40l0 481c0,22 -18,40 -40,40z"/>
  <path class="fil0" d="M897 784c-22,0 -40,-17 -40,-39l0 -350c0,-22 18,-40 40,-40 22,0 40,18 40,40l0 350c0,22 -18,39 -40,39z"/>
  <path class="fil0" d="M1179 527l-129 0c-22,0 -40,-18 -40,-40 0,-22 18,-40 40,-40l129 0c22,0 40,18 40,40 0,22 -18,40 -40,40z"/>
  <path class="fil1" d="M1663 617l-180 0c-22,0 -40,-18 -40,-40l0 -180c0,-22 18,-40 40,-40l180 0c22,0 40,18 40,40l0 180c0,22 -18,40 -40,40z"/>
  <path class="fil0" d="M1813 1793l-481 0c-22,0 -40,-18 -40,-40l0 -480c0,-22 18,-40 40,-40l481 0c22,0 40,18 40,40l0 480c0,22 -18,40 -40,40z"/>
  <path class="fil0" d="M1813 909l-654 0c-22,0 -40,-18 -40,-40 0,-22 18,-40 40,-40l654 0c22,0 40,18 40,40 0,22 -18,40 -40,40z"/>
  <path class="fil0" d="M1486 1163l-327 0c-22,0 -40,-18 -40,-40 0,-23 18,-40 40,-40l327 0c22,0 40,17 40,40 0,22 -18,40 -40,40z"/>
  <path class="fil0" d="M1323 1163c-23,0 -40,-18 -40,-40l0 -114c0,-22 17,-40 40,-40 22,0 40,18 40,40l0 114c0,22 -18,40 -40,40z"/>
  <path class="fil0" d="M1813 1137c-22,0 -40,-18 -40,-40l0 -228c0,-22 18,-40 40,-40 22,0 40,18 40,40l0 228c0,22 -18,40 -40,40z"/>
  <path class="fil0" d="M1179 1793l-229 0c-22,0 -40,-18 -40,-40l0 -481c0,-22 18,-40 40,-40 22,0 40,18 40,40l0 441 189 0c22,0 40,18 40,40 0,22 -18,40 -40,40z"/>
  <path class="fil0" d="M1103 1645c-22,0 -40,-18 -40,-40l0 -349c0,-23 18,-40 40,-40 22,0 40,17 40,40l0 349c0,22 -18,40 -40,40z"/>
  <path class="fil0" d="M950 1553l-129 0c-22,0 -40,-18 -40,-40 0,-22 18,-40 40,-40l129 0c22,0 40,18 40,40 0,22 -18,40 -40,40z"/>
  <path class="fil1" d="M668 1793l-241 0c-22,0 -40,-18 -40,-40l0 -240c0,-22 18,-40 40,-40l241 0c22,0 40,18 40,40l0 240c0,22 -18,40 -40,40z"/>
 </g>
</svg>
